<!DOCTYPE svg PUBLIC "-//W3C//DTD SVG 20010904//EN" "http://www.w3.org/TR/2001/REC-SVG-20010904/DTD/svg10.dtd">
<svg version="1.0" xmlns="http://www.w3.org/2000/svg" width="1080px" height="1080px" viewBox="0 0 6550 7100" preserveAspectRatio="xMidYMid meet">
<g id="layer101" fill="#000000" stroke="none">
 <path d="M1994 7046 c-72 -32 -107 -146 -65 -214 30 -46 77 -72 134 -72 60 0 99 20 125 62 28 48 35 85 21 127 -29 92 -126 136 -215 97z"/>
 <path d="M2601 7042 c-48 -24 -73 -62 -79 -120 -5 -55 10 -92 53 -132 23 -21 36 -25 93 -25 73 0 106 16 136 67 26 43 21 125 -10 165 -48 62 -124 81 -193 45z"/>
 <path d="M3210 7042 c-96 -48 -108 -174 -25 -252 23 -22 36 -25 95 -25 59 0 72 3 95 25 107 100 47 270 -95 270 -19 0 -51 -8 -70 -18z"/>
 <path d="M3812 7040 c-46 -28 -72 -76 -72 -133 0 -54 18 -92 58 -122 21 -15 43 -20 94 -20 57 0 70 4 93 25 39 36 55 73 55 123 0 112 -132 185 -228 127z"/>
 <path d="M4425 7041 c-104 -64 -108 -196 -8 -263 38 -25 118 -24 161 2 74 45 94 147 42 220 -41 58 -135 78 -195 41z"/>
 <path d="M1980 6428 c-124 -83 -69 -278 77 -278 81 0 137 43 154 119 12 51 -5 101 -46 141 -30 29 -43 34 -92 38 -48 3 -64 0 -93 -20z"/>
 <path d="M4435 6440 c-34 -14 -76 -66 -85 -106 -13 -54 3 -103 45 -144 30 -29 43 -34 92 -38 48 -3 64 0 93 20 124 84 69 279 -79 277 -25 0 -55 -4 -66 -9z"/>
 <path d="M2625 6410 c-44 -18 -70 -59 -70 -111 0 -41 5 -53 30 -79 78 -77 205 -27 205 80 0 82 -89 142 -165 110z"/>
 <path d="M3235 6411 c-39 -17 -67 -58 -72 -105 -5 -43 -3 -48 35 -86 34 -34 46 -40 82 -40 36 0 48 6 82 40 38 38 40 43 35 86 -6 60 -47 104 -103 110 -21 2 -48 0 -59 -5z"/>
 <path d="M3838 6409 c-35 -13 -68 -67 -68 -109 0 -107 127 -157 205 -80 25 26 30 38 30 80 0 42 -5 54 -31 81 -34 34 -90 46 -136 28z"/>
 <path d="M2031 5839 c-98 -21 -150 -131 -102 -219 54 -102 192 -108 262 -10 40 56 30 136 -25 189 -38 37 -85 51 -135 40z"/>
 <path d="M4462 5839 c-43 -9 -99 -63 -111 -106 -12 -42 -5 -91 18 -123 70 -98 208 -92 262 10 62 115 -40 247 -169 219z"/>
 <path d="M2608 5792 c-30 -18 -58 -67 -58 -102 0 -34 28 -79 63 -100 103 -63 218 51 162 160 -29 56 -112 77 -167 42z"/>
 <path d="M3828 5794 c-54 -29 -74 -109 -41 -165 18 -31 67 -59 103 -59 34 0 79 28 100 63 63 103 -55 220 -162 161z"/>
 <path d="M3239 5765 c-35 -19 -51 -65 -37 -105 12 -36 35 -50 78 -50 43 0 66 14 78 50 15 41 -2 86 -39 105 -34 18 -47 18 -80 0z"/>
 <path d="M1982 5210 c-51 -31 -74 -76 -69 -137 11 -150 187 -195 280 -71 24 32 26 112 3 155 -35 69 -144 96 -214 53z"/>
 <path d="M4409 5206 c-43 -29 -62 -71 -61 -133 2 -135 187 -194 269 -86 36 47 42 125 14 171 -47 73 -151 96 -222 48z"/>
 <path d="M2615 5189 c-57 -29 -79 -113 -45 -167 81 -129 275 -17 205 118 -27 51 -106 75 -160 49z"/>
 <path d="M3828 5184 c-35 -18 -58 -62 -58 -110 0 -28 8 -44 33 -69 42 -42 77 -52 125 -33 51 19 85 72 79 120 -12 89 -101 135 -179 92z"/>
 <path d="M3242 5160 c-27 -11 -55 -71 -45 -97 23 -65 99 -85 143 -38 29 31 31 89 3 116 -22 23 -70 32 -101 19z"/>
 <path d="M2016 4620 c-124 -38 -143 -212 -30 -278 47 -28 121 -26 162 5 87 63 86 198 0 251 -41 25 -94 34 -132 22z"/>
 <path d="M4447 4616 c-46 -17 -64 -32 -81 -65 -25 -50 -26 -97 -3 -142 29 -56 65 -81 124 -86 60 -5 117 26 144 77 66 122 -55 263 -184 216z"/>
 <path d="M2604 4571 c-31 -19 -54 -64 -54 -105 0 -35 38 -86 77 -103 71 -29 150 18 160 94 13 101 -94 168 -183 114z"/>
 <path d="M3824 4571 c-85 -52 -63 -182 36 -212 48 -15 102 8 130 53 65 108 -57 226 -166 159z"/>
 <path d="M3225 4537 c-58 -49 -21 -147 55 -147 49 0 82 35 82 86 0 46 -37 84 -82 84 -16 0 -41 -10 -55 -23z"/>
 <path d="M2010 4009 c-89 -36 -127 -146 -77 -220 37 -56 84 -82 138 -76 157 14 198 223 56 287 -46 22 -79 24 -117 9z"/>
 <path d="M4433 4001 c-76 -35 -108 -119 -75 -194 38 -86 142 -123 212 -75 79 53 103 141 58 208 -51 74 -121 96 -195 61z"/>
 <path d="M2603 3960 c-36 -22 -60 -82 -49 -125 4 -15 20 -40 36 -56 23 -24 37 -29 77 -29 55 0 86 17 108 60 28 53 11 120 -37 154 -31 22 -96 20 -135 -4z"/>
 <path d="M3822 3964 c-28 -19 -52 -65 -52 -99 0 -34 24 -80 52 -99 13 -9 43 -16 71 -16 40 0 54 5 77 29 79 79 27 201 -85 201 -22 0 -51 -7 -63 -16z"/>
 <path d="M3225 3927 c-39 -33 -39 -91 -1 -123 15 -13 40 -24 56 -24 16 0 41 11 56 24 57 48 19 146 -56 146 -16 0 -41 -10 -55 -23z"/>
 <path d="M1990 3388 c-98 -67 -107 -178 -20 -251 42 -36 90 -43 145 -22 52 19 81 52 96 108 33 122 -118 235 -221 165z"/>
 <path d="M4435 3394 c-46 -24 -63 -43 -80 -89 -30 -77 9 -160 90 -190 75 -29 152 2 190 76 62 120 -81 265 -200 203z"/>
 <path d="M2646 3370 c-71 -13 -108 -79 -87 -151 15 -49 59 -79 116 -79 94 0 146 101 93 180 -29 42 -70 59 -122 50z"/>
 <path d="M3822 3354 c-28 -19 -52 -65 -52 -99 0 -34 24 -80 52 -99 28 -20 90 -21 127 -1 30 15 61 69 61 105 0 29 -26 76 -52 94 -12 9 -43 16 -68 16 -25 0 -56 -7 -68 -16z"/>
 <path d="M3224 3316 c-57 -48 -19 -146 56 -146 75 0 113 98 56 146 -15 13 -40 24 -56 24 -16 0 -41 -11 -56 -24z"/>
 <path d="M175 2786 c-77 -34 -111 -122 -77 -199 54 -122 226 -122 278 0 54 126 -76 254 -201 199z"/>
 <path d="M774 2781 c-45 -20 -84 -83 -84 -134 0 -99 99 -172 195 -146 107 29 148 156 78 240 -50 59 -117 73 -189 40z"/>
 <path d="M1383 2779 c-57 -28 -77 -61 -78 -131 0 -90 58 -152 143 -152 66 0 111 28 140 86 29 58 23 113 -15 159 -52 61 -117 74 -190 38z"/>
 <path d="M1986 2778 c-116 -69 -95 -236 36 -277 62 -20 143 11 172 67 26 51 27 96 3 142 -29 57 -64 82 -124 87 -37 3 -57 -1 -87 -19z"/>
 <path d="M4435 2786 c-82 -37 -113 -133 -69 -218 53 -103 213 -95 270 14 63 121 -75 260 -201 204z"/>
 <path d="M5034 2781 c-77 -47 -100 -122 -62 -199 29 -58 74 -86 140 -86 85 0 143 62 143 152 -1 70 -21 103 -79 132 -53 25 -102 26 -142 1z"/>
 <path d="M5655 2786 c-132 -57 -118 -248 20 -285 96 -25 195 48 195 146 0 14 -10 47 -21 71 -34 70 -121 100 -194 68z"/>
 <path d="M6249 2778 c-119 -68 -96 -242 37 -277 74 -20 144 15 176 86 59 133 -87 265 -213 191z"/>
 <path d="M2623 2755 c-35 -15 -73 -67 -73 -101 0 -123 169 -172 225 -64 30 59 14 118 -44 157 -39 26 -63 28 -108 8z"/>
 <path d="M3829 2747 c-134 -90 -11 -282 126 -197 33 20 55 63 55 104 0 35 -38 86 -75 102 -47 19 -66 18 -106 -9z"/>
 <path d="M3221 2706 c-33 -35 -31 -93 4 -123 55 -48 137 -12 137 61 0 51 -33 86 -82 86 -26 0 -43 -7 -59 -24z"/>
 <path d="M159 2169 c-71 -42 -95 -125 -57 -199 28 -54 72 -82 133 -82 84 0 145 56 152 139 10 122 -121 204 -228 142z"/>
 <path d="M6250 2171 c-51 -27 -82 -84 -77 -144 7 -83 68 -139 152 -139 61 0 105 28 133 82 38 75 14 158 -58 199 -47 26 -104 27 -150 2z"/>
 <path d="M795 2146 c-43 -19 -65 -57 -65 -112 0 -41 5 -51 37 -81 34 -33 40 -35 87 -30 40 3 55 11 78 36 55 62 30 162 -47 191 -34 13 -53 12 -90 -4z"/>
 <path d="M1405 2146 c-88 -38 -90 -169 -4 -213 46 -24 94 -16 133 21 30 28 36 40 36 75 0 56 -22 95 -64 115 -41 19 -61 20 -101 2z"/>
 <path d="M2010 2143 c-50 -26 -76 -82 -61 -133 40 -134 231 -109 231 29 0 89 -91 145 -170 104z"/>
 <path d="M2623 2145 c-116 -50 -78 -225 48 -225 128 0 163 166 49 225 -35 18 -56 18 -97 0z"/>
 <path d="M3834 2141 c-43 -26 -64 -59 -64 -99 0 -116 145 -168 214 -76 45 62 21 150 -49 180 -45 19 -64 18 -101 -5z"/>
 <path d="M4444 2145 c-82 -42 -85 -168 -4 -210 69 -36 148 -2 171 74 28 95 -78 181 -167 136z"/>
 <path d="M5052 2143 c-40 -19 -62 -59 -62 -110 0 -131 194 -153 229 -26 16 58 -11 117 -66 139 -42 18 -60 17 -101 -3z"/>
 <path d="M5665 2144 c-47 -23 -65 -53 -65 -106 0 -66 37 -108 100 -114 26 -3 55 1 69 8 87 47 84 177 -6 214 -42 18 -61 17 -98 -2z"/>
 <path d="M3228 2106 c-40 -30 -43 -99 -6 -133 28 -25 92 -23 119 3 30 30 30 87 -1 119 -26 28 -83 34 -112 11z"/>
 <path d="M174 1570 c-33 -13 -82 -77 -90 -115 -22 -120 115 -218 224 -161 101 52 106 205 9 265 -36 22 -103 27 -143 11z"/>
 <path d="M6242 1559 c-128 -84 -71 -279 82 -279 69 0 118 33 141 94 24 62 14 108 -34 159 -35 37 -43 41 -97 44 -48 3 -65 0 -92 -18z"/>
 <path d="M794 1536 c-44 -19 -64 -53 -64 -106 0 -52 18 -83 60 -105 53 -28 120 -11 154 37 21 29 20 107 0 137 -17 24 -71 51 -101 51 -10 -1 -32 -7 -49 -14z"/>
 <path d="M5664 1536 c-44 -19 -64 -53 -64 -106 0 -52 18 -83 60 -105 39 -20 79 -19 117 5 40 24 55 53 55 102 -1 50 -24 86 -67 104 -42 17 -61 17 -101 0z"/>
 <path d="M1391 1484 c-69 -87 54 -193 126 -109 49 56 10 135 -67 135 -30 0 -43 -6 -59 -26z"/>
 <path d="M2002 1487 c-50 -53 -11 -141 63 -141 64 0 101 64 71 122 -17 33 -34 42 -80 42 -21 0 -40 -8 -54 -23z"/>
 <path d="M2610 1488 c-22 -23 -27 -77 -10 -108 28 -52 125 -40 149 19 16 36 1 85 -30 101 -32 18 -87 12 -109 -12z"/>
 <path d="M3227 1498 c-75 -58 -4 -184 84 -147 59 24 71 121 19 149 -26 14 -83 12 -103 -2z"/>
 <path d="M3833 1495 c-49 -34 -33 -123 27 -143 36 -13 86 1 100 28 17 31 12 85 -10 108 -25 26 -84 30 -117 7z"/>
 <path d="M4452 1503 c-22 -9 -44 -63 -37 -93 21 -96 165 -79 165 20 0 48 -33 80 -81 79 -19 0 -40 -3 -47 -6z"/>
 <path d="M5051 1493 c-12 -10 -24 -34 -27 -54 -13 -78 82 -125 141 -69 53 50 18 140 -55 140 -21 0 -47 -8 -59 -17z"/>
 <path d="M153 949 c-35 -22 -73 -91 -73 -131 0 -41 42 -109 80 -129 131 -71 273 58 216 195 -32 78 -150 112 -223 65z"/>
 <path d="M6239 946 c-67 -46 -86 -124 -49 -197 27 -51 72 -79 130 -79 62 0 110 28 137 80 28 53 29 82 2 136 -40 83 -144 111 -220 60z"/>
 <path d="M783 920 c-41 -25 -53 -48 -53 -105 0 -80 70 -130 150 -106 70 21 104 107 69 172 -15 29 -69 59 -104 59 -16 0 -44 -9 -62 -20z"/>
 <path d="M1405 931 c-76 -32 -93 -150 -28 -201 37 -29 68 -35 114 -21 65 20 96 94 69 165 -19 50 -99 79 -155 57z"/>
 <path d="M2014 930 c-28 -11 -61 -54 -69 -89 -13 -61 51 -141 113 -141 40 0 90 28 106 59 54 104 -43 215 -150 171z"/>
 <path d="M2630 933 c-31 -11 -70 -58 -76 -90 -18 -94 81 -170 168 -129 111 53 75 227 -47 225 -16 0 -37 -3 -45 -6z"/>
 <path d="M3198 900 c-38 -38 -40 -43 -35 -86 7 -69 51 -109 117 -109 66 0 110 40 117 109 5 43 3 48 -35 86 -34 34 -46 40 -82 40 -36 0 -48 -6 -82 -40z"/>
 <path d="M3832 927 c-84 -48 -80 -172 6 -213 120 -57 228 99 133 190 -35 33 -103 44 -139 23z"/>
 <path d="M4432 921 c-99 -63 -49 -221 70 -221 64 0 125 78 112 145 -14 77 -113 119 -182 76z"/>
 <path d="M5048 925 c-86 -48 -72 -188 21 -216 69 -21 133 13 151 81 12 45 -2 92 -38 124 -28 25 -99 31 -134 11z"/>
 <path d="M5653 920 c-41 -25 -53 -48 -53 -103 0 -110 142 -156 210 -69 25 31 27 108 4 140 -36 51 -107 66 -161 32z"/>
 <path d="M149 336 c-37 -25 -69 -85 -69 -128 0 -42 39 -104 79 -126 78 -44 169 -19 209 58 27 53 28 93 4 140 -39 79 -149 106 -223 56z"/>
 <path d="M763 340 c-37 -22 -73 -86 -73 -128 0 -44 41 -112 80 -134 55 -30 131 -21 175 22 19 19 40 49 46 67 21 65 -12 147 -71 178 -41 21 -118 19 -157 -5z"/>
 <path d="M1369 337 c-67 -45 -87 -130 -46 -201 70 -122 258 -87 282 53 9 54 -22 123 -67 151 -47 28 -124 27 -169 -3z"/>
 <path d="M1982 340 c-51 -31 -74 -76 -69 -137 11 -151 188 -195 281 -70 44 59 13 177 -54 212 -42 22 -118 19 -158 -5z"/>
 <path d="M2610 353 c-80 -32 -116 -151 -67 -224 84 -127 277 -68 277 84 0 88 -50 139 -140 144 -30 1 -62 0 -70 -4z"/>
 <path d="M3220 353 c-51 -20 -90 -83 -90 -146 0 -110 119 -180 220 -129 95 47 108 174 26 251 -20 19 -39 25 -84 28 -31 1 -64 0 -72 -4z"/>
 <path d="M3830 352 c-61 -29 -90 -73 -90 -137 0 -88 62 -155 145 -155 146 0 209 168 101 269 -20 19 -39 25 -84 28 -31 1 -64 -1 -72 -5z"/>
 <path d="M4416 341 c-119 -79 -79 -259 61 -278 93 -12 163 46 170 140 5 61 -18 106 -69 137 -44 26 -123 27 -162 1z"/>
 <path d="M5022 340 c-72 -44 -90 -156 -35 -221 118 -140 337 -2 255 161 -38 76 -146 105 -220 60z"/>
 <path d="M5635 341 c-47 -28 -69 -69 -69 -128 -2 -115 122 -189 224 -134 39 21 80 89 80 133 0 42 -36 106 -73 128 -42 26 -121 26 -162 1z"/>
 <path d="M6239 337 c-39 -26 -69 -79 -69 -122 0 -48 40 -116 80 -137 76 -40 173 -9 210 67 25 51 25 78 1 131 -37 81 -147 111 -222 61z"/>
 </g>

</svg>